<?xml version="1.0" encoding="UTF-8" standalone="no"?>
<!DOCTYPE svg PUBLIC "-//W3C//DTD SVG 1.1//EN"
 "http://www.w3.org/Graphics/SVG/1.1/DTD/svg11.dtd">
<!-- Generated by graphviz version 2.40.1 (20161225.0304)
 -->
<!-- Title: dependencies Pages: 1 -->
<svg width="1087pt" height="332pt"
 viewBox="0.00 0.00 1087.08 332.00" xmlns="http://www.w3.org/2000/svg" xmlns:xlink="http://www.w3.org/1999/xlink">
<g id="graph0" class="graph" transform="scale(1 1) rotate(0) translate(4 328)">
<title>dependencies</title>
<polygon fill="#ffffff" stroke="transparent" points="-4,4 -4,-328 1083.0773,-328 1083.0773,4 -4,4"/>
<!-- n0 -->
<g id="node1" class="node">
<title>n0</title>
<polygon fill="none" stroke="#000000" points="538.5877,-324 449.5877,-324 449.5877,-288 538.5877,-288 538.5877,-324"/>
<text text-anchor="middle" x="494.0877" y="-302.3" font-family="Times,serif" font-size="14.00" fill="#000000">replicante</text>
</g>
<!-- n2 -->
<g id="node3" class="node">
<title>n2</title>
<ellipse fill="none" stroke="#000000" cx="279.0877" cy="-162" rx="40.8928" ry="18"/>
<text text-anchor="middle" x="279.0877" y="-158.3" font-family="Times,serif" font-size="14.00" fill="#000000">failure</text>
</g>
<!-- n0&#45;&gt;n2 -->
<g id="edge1" class="edge">
<title>n0&#45;&gt;n2</title>
<path fill="none" stroke="#000000" d="M449.579,-295.3556C420.2803,-286.8758 382.1213,-272.912 353.0877,-252 329.1745,-234.7761 308.5128,-208.0083 295.1465,-188.1375"/>
<polygon fill="#000000" stroke="#000000" points="297.935,-186.0065 289.5332,-179.552 292.0762,-189.8372 297.935,-186.0065"/>
</g>
<!-- n3 -->
<g id="node4" class="node">
<title>n3</title>
<ellipse fill="none" stroke="#000000" cx="458.0877" cy="-162" rx="120.4791" ry="18"/>
<text text-anchor="middle" x="458.0877" y="-158.3" font-family="Times,serif" font-size="14.00" fill="#000000">replicante_agent_client</text>
</g>
<!-- n0&#45;&gt;n3 -->
<g id="edge2" class="edge">
<title>n0&#45;&gt;n3</title>
<path fill="none" stroke="#000000" d="M449.5723,-300.4141C419.628,-294.0858 382.2456,-280.6189 363.0877,-252 354.1872,-238.7041 355.0411,-229.8294 363.0877,-216 371.3047,-201.8775 384.7452,-191.1455 398.9646,-183.1211"/>
<polygon fill="#000000" stroke="#000000" points="400.6332,-186.1983 407.879,-178.4686 397.3944,-179.9926 400.6332,-186.1983"/>
</g>
<!-- n4 -->
<g id="node5" class="node">
<title>n4</title>
<ellipse fill="none" stroke="#000000" cx="139.0877" cy="-234" rx="139.1754" ry="18"/>
<text text-anchor="middle" x="139.0877" y="-230.3" font-family="Times,serif" font-size="14.00" fill="#000000">replicante_agent_discovery</text>
</g>
<!-- n0&#45;&gt;n4 -->
<g id="edge3" class="edge">
<title>n0&#45;&gt;n4</title>
<path fill="none" stroke="#000000" d="M449.4861,-296.9541C393.1056,-285.5191 294.8673,-265.5947 223.989,-251.2194"/>
<polygon fill="#000000" stroke="#000000" points="224.6727,-247.7869 214.1765,-249.2293 223.2813,-254.6472 224.6727,-247.7869"/>
</g>
<!-- n5 -->
<g id="node6" class="node">
<title>n5</title>
<ellipse fill="none" stroke="#000000" cx="494.0877" cy="-234" rx="122.3786" ry="18"/>
<text text-anchor="middle" x="494.0877" y="-230.3" font-family="Times,serif" font-size="14.00" fill="#000000">replicante_data_fetcher</text>
</g>
<!-- n0&#45;&gt;n5 -->
<g id="edge4" class="edge">
<title>n0&#45;&gt;n5</title>
<path fill="none" stroke="#000000" d="M494.0877,-287.8314C494.0877,-280.131 494.0877,-270.9743 494.0877,-262.4166"/>
<polygon fill="#000000" stroke="#000000" points="497.5878,-262.4132 494.0877,-252.4133 490.5878,-262.4133 497.5878,-262.4132"/>
</g>
<!-- n6 -->
<g id="node7" class="node">
<title>n6</title>
<ellipse fill="none" stroke="#000000" cx="650.0877" cy="-90" rx="112.3801" ry="18"/>
<text text-anchor="middle" x="650.0877" y="-86.3" font-family="Times,serif" font-size="14.00" fill="#000000">replicante_data_store</text>
</g>
<!-- n0&#45;&gt;n6 -->
<g id="edge5" class="edge">
<title>n0&#45;&gt;n6</title>
<path fill="none" stroke="#000000" d="M538.8678,-299.0902C567.9374,-292.1915 604.1772,-278.5865 625.0877,-252 655.4601,-213.3831 656.2372,-153.1758 653.5229,-118.0606"/>
<polygon fill="#000000" stroke="#000000" points="657.0006,-117.6565 652.5973,-108.02 650.0301,-118.2991 657.0006,-117.6565"/>
</g>
<!-- n7 -->
<g id="node8" class="node">
<title>n7</title>
<ellipse fill="none" stroke="#000000" cx="808.0877" cy="-162" rx="135.6761" ry="18"/>
<text text-anchor="middle" x="808.0877" y="-158.3" font-family="Times,serif" font-size="14.00" fill="#000000">replicante_streams_events</text>
</g>
<!-- n0&#45;&gt;n7 -->
<g id="edge6" class="edge">
<title>n0&#45;&gt;n7</title>
<path fill="none" stroke="#000000" d="M538.6055,-294.2524C572.1801,-284.7023 618.9747,-269.9027 658.0877,-252 699.809,-232.9034 744.531,-204.9996 774.1797,-185.3358"/>
<polygon fill="#000000" stroke="#000000" points="776.1353,-188.2386 782.5018,-179.7699 772.2437,-182.42 776.1353,-188.2386"/>
</g>
<!-- n8 -->
<g id="node9" class="node">
<title>n8</title>
<ellipse fill="none" stroke="#000000" cx="962.0877" cy="-90" rx="116.9792" ry="18"/>
<text text-anchor="middle" x="962.0877" y="-86.3" font-family="Times,serif" font-size="14.00" fill="#000000">replicante_util_tracing</text>
</g>
<!-- n0&#45;&gt;n8 -->
<g id="edge7" class="edge">
<title>n0&#45;&gt;n8</title>
<path fill="none" stroke="#000000" d="M538.8326,-300.2145C643.5076,-285.7097 899.5403,-244.289 953.0877,-180 967.1637,-163.1003 968.5312,-137.7524 966.8829,-118.2593"/>
<polygon fill="#000000" stroke="#000000" points="970.337,-117.6582 965.7184,-108.123 963.3827,-118.4572 970.337,-117.6582"/>
</g>
<!-- n1 -->
<g id="node2" class="node">
<title>n1</title>
<ellipse fill="none" stroke="#000000" cx="726.0877" cy="-18" rx="100.9827" ry="18"/>
<text text-anchor="middle" x="726.0877" y="-14.3" font-family="Times,serif" font-size="14.00" fill="#000000">error&#45;chain v0.12.0</text>
</g>
<!-- n3&#45;&gt;n1 -->
<g id="edge8" class="edge">
<title>n3&#45;&gt;n1</title>
<path fill="none" stroke="#000000" d="M467.6085,-143.954C479.3489,-123.4568 501.2163,-90.4685 529.0877,-72 560.1641,-51.4078 598.9369,-38.6218 633.8451,-30.7033"/>
<polygon fill="#000000" stroke="#000000" points="635.0227,-34.0298 644.0586,-28.4978 633.5452,-27.1875 635.0227,-34.0298"/>
</g>
<!-- n4&#45;&gt;n2 -->
<g id="edge9" class="edge">
<title>n4&#45;&gt;n2</title>
<path fill="none" stroke="#000000" d="M173.3355,-216.3868C194.4902,-205.5072 221.5999,-191.5651 243.0746,-180.521"/>
<polygon fill="#000000" stroke="#000000" points="244.9083,-183.5138 252.2004,-175.8277 241.7068,-177.2887 244.9083,-183.5138"/>
</g>
<!-- n5&#45;&gt;n2 -->
<g id="edge10" class="edge">
<title>n5&#45;&gt;n2</title>
<path fill="none" stroke="#000000" d="M442.6754,-217.6017C410.0547,-207.0915 367.0001,-193.025 329.0877,-180 326.2137,-179.0127 323.2517,-177.9814 320.2717,-176.9339"/>
<polygon fill="#000000" stroke="#000000" points="321.3736,-173.6111 310.7788,-173.5667 319.0334,-180.2084 321.3736,-173.6111"/>
</g>
<!-- n5&#45;&gt;n3 -->
<g id="edge11" class="edge">
<title>n5&#45;&gt;n3</title>
<path fill="none" stroke="#000000" d="M485.0033,-215.8314C481.0262,-207.8771 476.2722,-198.369 471.8738,-189.5723"/>
<polygon fill="#000000" stroke="#000000" points="474.897,-187.7923 467.2943,-180.4133 468.636,-190.9228 474.897,-187.7923"/>
</g>
<!-- n5&#45;&gt;n6 -->
<g id="edge12" class="edge">
<title>n5&#45;&gt;n6</title>
<path fill="none" stroke="#000000" d="M531.8827,-216.8361C549.8376,-207.5425 570.8642,-194.905 587.0877,-180 607.0032,-161.703 624.1848,-136.0633 635.5511,-116.8286"/>
<polygon fill="#000000" stroke="#000000" points="638.6995,-118.3745 640.6503,-107.9608 632.6312,-114.8851 638.6995,-118.3745"/>
</g>
<!-- n5&#45;&gt;n7 -->
<g id="edge13" class="edge">
<title>n5&#45;&gt;n7</title>
<path fill="none" stroke="#000000" d="M560.2953,-218.8186C609.9072,-207.4426 677.9482,-191.8409 730.1805,-179.8641"/>
<polygon fill="#000000" stroke="#000000" points="731.1086,-183.2422 740.0733,-177.5956 729.544,-176.4192 731.1086,-183.2422"/>
</g>
<!-- n6&#45;&gt;n1 -->
<g id="edge14" class="edge">
<title>n6&#45;&gt;n1</title>
<path fill="none" stroke="#000000" d="M668.8742,-72.2022C678.1916,-63.3752 689.6004,-52.5669 699.7719,-42.9307"/>
<polygon fill="#000000" stroke="#000000" points="702.4014,-45.2609 707.2539,-35.8425 697.5872,-40.1792 702.4014,-45.2609"/>
</g>
<!-- n7&#45;&gt;n1 -->
<g id="edge15" class="edge">
<title>n7&#45;&gt;n1</title>
<path fill="none" stroke="#000000" d="M802.4995,-143.9891C796.2789,-125.2545 785.2147,-95.4401 771.0877,-72 765.1073,-62.0771 757.3737,-52.0874 750.0098,-43.4452"/>
<polygon fill="#000000" stroke="#000000" points="752.6388,-41.1348 743.4118,-35.9278 747.3778,-45.7524 752.6388,-41.1348"/>
</g>
<!-- n7&#45;&gt;n6 -->
<g id="edge16" class="edge">
<title>n7&#45;&gt;n6</title>
<path fill="none" stroke="#000000" d="M769.8403,-144.5708C747.8463,-134.5483 720.0492,-121.8812 696.7737,-111.2746"/>
<polygon fill="#000000" stroke="#000000" points="697.9887,-107.9821 687.4376,-107.0202 695.086,-114.3519 697.9887,-107.9821"/>
</g>
<!-- n8&#45;&gt;n1 -->
<g id="edge17" class="edge">
<title>n8&#45;&gt;n1</title>
<path fill="none" stroke="#000000" d="M909.1247,-73.8418C872.9467,-62.8044 824.9073,-48.1484 787.1214,-36.6205"/>
<polygon fill="#000000" stroke="#000000" points="787.8391,-33.1802 777.253,-33.6098 785.7964,-39.8756 787.8391,-33.1802"/>
</g>
</g>
</svg>
