<?xml version="1.0" encoding="UTF-8" standalone="no"?>
<!DOCTYPE svg PUBLIC "-//W3C//DTD SVG 1.1//EN"
 "http://www.w3.org/Graphics/SVG/1.1/DTD/svg11.dtd">
<!-- Generated by graphviz version 2.40.1 (20161225.0304)
 -->
<!-- Title: dependencies Pages: 1 -->
<svg width="892pt" height="260pt"
 viewBox="0.00 0.00 891.68 260.00" xmlns="http://www.w3.org/2000/svg" xmlns:xlink="http://www.w3.org/1999/xlink">
<g id="graph0" class="graph" transform="scale(1 1) rotate(0) translate(4 256)">
<title>dependencies</title>
<polygon fill="#ffffff" stroke="transparent" points="-4,4 -4,-256 887.6772,-256 887.6772,4 -4,4"/>
<!-- n0 -->
<g id="node1" class="node">
<title>n0</title>
<polygon fill="none" stroke="#000000" points="441.1876,-252 352.1876,-252 352.1876,-216 441.1876,-216 441.1876,-252"/>
<text text-anchor="middle" x="396.6876" y="-230.3" font-family="Times,serif" font-size="14.00" fill="#000000">replicante</text>
</g>
<!-- n2 -->
<g id="node3" class="node">
<title>n2</title>
<ellipse fill="none" stroke="#000000" cx="70.6876" cy="-90" rx="40.8928" ry="18"/>
<text text-anchor="middle" x="70.6876" y="-86.3" font-family="Times,serif" font-size="14.00" fill="#000000">failure</text>
</g>
<!-- n0&#45;&gt;n2 -->
<g id="edge1" class="edge">
<title>n0&#45;&gt;n2</title>
<path fill="none" stroke="#000000" d="M352.0885,-231.0781C254.5459,-224.2338 29.1361,-205.7709 6.6876,-180 -12.6598,-157.7892 14.2645,-129.8232 38.8906,-111.009"/>
<polygon fill="#000000" stroke="#000000" points="41.0894,-113.7369 47.0838,-105.001 36.9499,-108.092 41.0894,-113.7369"/>
</g>
<!-- n3 -->
<g id="node4" class="node">
<title>n3</title>
<ellipse fill="none" stroke="#000000" cx="327.6876" cy="-90" rx="120.4791" ry="18"/>
<text text-anchor="middle" x="327.6876" y="-86.3" font-family="Times,serif" font-size="14.00" fill="#000000">replicante_agent_client</text>
</g>
<!-- n0&#45;&gt;n3 -->
<g id="edge2" class="edge">
<title>n0&#45;&gt;n3</title>
<path fill="none" stroke="#000000" d="M371.4604,-215.9664C360.21,-206.5513 347.8936,-194.0633 340.6876,-180 330.9383,-160.9731 327.8658,-136.8914 327.1343,-118.4272"/>
<polygon fill="#000000" stroke="#000000" points="330.631,-118.2171 326.9413,-108.2856 323.6323,-118.3504 330.631,-118.2171"/>
</g>
<!-- n4 -->
<g id="node5" class="node">
<title>n4</title>
<ellipse fill="none" stroke="#000000" cx="154.6876" cy="-162" rx="139.1754" ry="18"/>
<text text-anchor="middle" x="154.6876" y="-158.3" font-family="Times,serif" font-size="14.00" fill="#000000">replicante_agent_discovery</text>
</g>
<!-- n0&#45;&gt;n4 -->
<g id="edge3" class="edge">
<title>n0&#45;&gt;n4</title>
<path fill="none" stroke="#000000" d="M352.0191,-220.7102C315.1,-209.726 262.1567,-193.9743 220.4021,-181.5514"/>
<polygon fill="#000000" stroke="#000000" points="221.1725,-178.1291 210.5896,-178.632 219.1763,-184.8384 221.1725,-178.1291"/>
</g>
<!-- n5 -->
<g id="node6" class="node">
<title>n5</title>
<ellipse fill="none" stroke="#000000" cx="471.6876" cy="-162" rx="122.3786" ry="18"/>
<text text-anchor="middle" x="471.6876" y="-158.3" font-family="Times,serif" font-size="14.00" fill="#000000">replicante_data_fetcher</text>
</g>
<!-- n0&#45;&gt;n5 -->
<g id="edge4" class="edge">
<title>n0&#45;&gt;n5</title>
<path fill="none" stroke="#000000" d="M415.6133,-215.8314C424.7425,-207.0673 435.8365,-196.4171 445.7394,-186.9103"/>
<polygon fill="#000000" stroke="#000000" points="448.2378,-189.3636 453.0278,-179.9134 443.39,-184.3139 448.2378,-189.3636"/>
</g>
<!-- n6 -->
<g id="node7" class="node">
<title>n6</title>
<ellipse fill="none" stroke="#000000" cx="615.6876" cy="-90" rx="112.3801" ry="18"/>
<text text-anchor="middle" x="615.6876" y="-86.3" font-family="Times,serif" font-size="14.00" fill="#000000">replicante_data_store</text>
</g>
<!-- n0&#45;&gt;n6 -->
<g id="edge5" class="edge">
<title>n0&#45;&gt;n6</title>
<path fill="none" stroke="#000000" d="M441.3596,-228.1042C495.2985,-220.0344 581.4473,-203.7851 602.6876,-180 617.4159,-163.5072 619.9193,-138.1209 619.1661,-118.5097"/>
<polygon fill="#000000" stroke="#000000" points="622.6423,-118.0403 618.4695,-108.3018 615.6585,-118.5169 622.6423,-118.0403"/>
</g>
<!-- n7 -->
<g id="node8" class="node">
<title>n7</title>
<ellipse fill="none" stroke="#000000" cx="766.6876" cy="-162" rx="116.9792" ry="18"/>
<text text-anchor="middle" x="766.6876" y="-158.3" font-family="Times,serif" font-size="14.00" fill="#000000">replicante_util_tracing</text>
</g>
<!-- n0&#45;&gt;n7 -->
<g id="edge6" class="edge">
<title>n0&#45;&gt;n7</title>
<path fill="none" stroke="#000000" d="M441.3183,-225.3151C501.2846,-213.646 608.9847,-192.6881 683.9778,-178.0949"/>
<polygon fill="#000000" stroke="#000000" points="684.7266,-181.5149 693.8739,-176.1692 683.3894,-174.6438 684.7266,-181.5149"/>
</g>
<!-- n1 -->
<g id="node2" class="node">
<title>n1</title>
<ellipse fill="none" stroke="#000000" cx="545.6876" cy="-18" rx="100.9827" ry="18"/>
<text text-anchor="middle" x="545.6876" y="-14.3" font-family="Times,serif" font-size="14.00" fill="#000000">error&#45;chain v0.12.0</text>
</g>
<!-- n3&#45;&gt;n1 -->
<g id="edge7" class="edge">
<title>n3&#45;&gt;n1</title>
<path fill="none" stroke="#000000" d="M377.428,-73.572C410.2536,-62.7305 453.381,-48.4866 487.7545,-37.1339"/>
<polygon fill="#000000" stroke="#000000" points="489.2617,-40.3221 497.6595,-33.8625 487.0663,-33.6753 489.2617,-40.3221"/>
</g>
<!-- n4&#45;&gt;n2 -->
<g id="edge8" class="edge">
<title>n4&#45;&gt;n2</title>
<path fill="none" stroke="#000000" d="M133.4909,-143.8314C122.5128,-134.4216 108.998,-122.8375 97.3212,-112.8288"/>
<polygon fill="#000000" stroke="#000000" points="99.455,-110.048 89.5846,-106.1975 94.8995,-115.3628 99.455,-110.048"/>
</g>
<!-- n5&#45;&gt;n1 -->
<g id="edge9" class="edge">
<title>n5&#45;&gt;n1</title>
<path fill="none" stroke="#000000" d="M473.6144,-143.7639C476.2197,-124.8457 482.0816,-94.8835 494.6876,-72 500.5106,-61.4296 508.8919,-51.3711 517.1828,-42.8627"/>
<polygon fill="#000000" stroke="#000000" points="519.6863,-45.3098 524.3789,-35.8108 514.7869,-40.3102 519.6863,-45.3098"/>
</g>
<!-- n5&#45;&gt;n3 -->
<g id="edge10" class="edge">
<title>n5&#45;&gt;n3</title>
<path fill="none" stroke="#000000" d="M436.8292,-144.5708C417.1073,-134.7099 392.2656,-122.289 371.2661,-111.7893"/>
<polygon fill="#000000" stroke="#000000" points="372.7345,-108.6104 362.225,-107.2687 369.604,-114.8714 372.7345,-108.6104"/>
</g>
<!-- n5&#45;&gt;n6 -->
<g id="edge11" class="edge">
<title>n5&#45;&gt;n6</title>
<path fill="none" stroke="#000000" d="M506.546,-144.5708C526.2679,-134.7099 551.1096,-122.289 572.1091,-111.7893"/>
<polygon fill="#000000" stroke="#000000" points="573.7712,-114.8714 581.1502,-107.2687 570.6407,-108.6104 573.7712,-114.8714"/>
</g>
<!-- n6&#45;&gt;n1 -->
<g id="edge12" class="edge">
<title>n6&#45;&gt;n1</title>
<path fill="none" stroke="#000000" d="M598.3842,-72.2022C589.8865,-63.4617 579.5001,-52.7786 570.2016,-43.2144"/>
<polygon fill="#000000" stroke="#000000" points="572.5148,-40.5727 563.0345,-35.8425 567.4958,-45.4523 572.5148,-40.5727"/>
</g>
<!-- n7&#45;&gt;n1 -->
<g id="edge13" class="edge">
<title>n7&#45;&gt;n1</title>
<path fill="none" stroke="#000000" d="M765.5442,-143.8173C763.2863,-123.5068 756.581,-90.9945 736.6876,-72 720.4102,-56.4581 671.0179,-42.7178 626.5414,-32.9868"/>
<polygon fill="#000000" stroke="#000000" points="627.062,-29.519 616.5509,-30.8487 625.597,-36.364 627.062,-29.519"/>
</g>
</g>
</svg>
