<?xml version="1.0" encoding="UTF-8" standalone="no"?>
<!DOCTYPE svg PUBLIC "-//W3C//DTD SVG 1.1//EN"
 "http://www.w3.org/Graphics/SVG/1.1/DTD/svg11.dtd">
<!-- Generated by graphviz version 2.40.1 (20161225.0304)
 -->
<!-- Title: dependencies Pages: 1 -->
<svg width="1017pt" height="332pt"
 viewBox="0.00 0.00 1017.10 332.00" xmlns="http://www.w3.org/2000/svg" xmlns:xlink="http://www.w3.org/1999/xlink">
<g id="graph0" class="graph" transform="scale(1 1) rotate(0) translate(4 328)">
<title>dependencies</title>
<polygon fill="#ffffff" stroke="transparent" points="-4,4 -4,-328 1013.0969,-328 1013.0969,4 -4,4"/>
<!-- n0 -->
<g id="node1" class="node">
<title>n0</title>
<polygon fill="none" stroke="#000000" points="383.8558,-324 294.8558,-324 294.8558,-288 383.8558,-288 383.8558,-324"/>
<text text-anchor="middle" x="339.3558" y="-302.3" font-family="Times,serif" font-size="14.00" fill="#000000">replicante</text>
</g>
<!-- n2 -->
<g id="node3" class="node">
<title>n2</title>
<ellipse fill="none" stroke="#000000" cx="354.3558" cy="-18" rx="40.8928" ry="18"/>
<text text-anchor="middle" x="354.3558" y="-14.3" font-family="Times,serif" font-size="14.00" fill="#000000">failure</text>
</g>
<!-- n0&#45;&gt;n2 -->
<g id="edge1" class="edge">
<title>n0&#45;&gt;n2</title>
<path fill="none" stroke="#000000" d="M294.5013,-298.7907C238.9843,-289.2167 148.3398,-271.2593 120.3558,-252 44.9678,-200.1159 -38.9677,-141.6852 20.3558,-72 38.5086,-50.6766 214.9551,-31.1567 303.79,-22.5859"/>
<polygon fill="#000000" stroke="#000000" points="304.2923,-26.054 313.9146,-21.6199 303.6274,-19.0856 304.2923,-26.054"/>
</g>
<!-- n3 -->
<g id="node4" class="node">
<title>n3</title>
<ellipse fill="none" stroke="#000000" cx="225.3558" cy="-162" rx="120.4791" ry="18"/>
<text text-anchor="middle" x="225.3558" y="-158.3" font-family="Times,serif" font-size="14.00" fill="#000000">replicante_agent_client</text>
</g>
<!-- n0&#45;&gt;n3 -->
<g id="edge2" class="edge">
<title>n0&#45;&gt;n3</title>
<path fill="none" stroke="#000000" d="M294.8404,-300.4141C264.8962,-294.0858 227.5138,-280.6189 208.3558,-252 195.9458,-233.4613 202.2438,-208.2115 210.4718,-189.1744"/>
<polygon fill="#000000" stroke="#000000" points="213.6414,-190.6589 214.7266,-180.1198 207.306,-187.6819 213.6414,-190.6589"/>
</g>
<!-- n4 -->
<g id="node5" class="node">
<title>n4</title>
<ellipse fill="none" stroke="#000000" cx="168.3558" cy="-90" rx="139.1754" ry="18"/>
<text text-anchor="middle" x="168.3558" y="-86.3" font-family="Times,serif" font-size="14.00" fill="#000000">replicante_agent_discovery</text>
</g>
<!-- n0&#45;&gt;n4 -->
<g id="edge3" class="edge">
<title>n0&#45;&gt;n4</title>
<path fill="none" stroke="#000000" d="M294.771,-298.6391C235.8316,-286.1476 134.9439,-254.472 96.3558,-180 88.9948,-165.7938 89.2004,-158.3108 96.3558,-144 102.5367,-131.6383 113.042,-121.3723 124.1454,-113.2296"/>
<polygon fill="#000000" stroke="#000000" points="126.391,-115.9352 132.6912,-107.4171 122.4541,-110.1471 126.391,-115.9352"/>
</g>
<!-- n5 -->
<g id="node6" class="node">
<title>n5</title>
<ellipse fill="none" stroke="#000000" cx="339.3558" cy="-234" rx="122.3786" ry="18"/>
<text text-anchor="middle" x="339.3558" y="-230.3" font-family="Times,serif" font-size="14.00" fill="#000000">replicante_data_fetcher</text>
</g>
<!-- n0&#45;&gt;n5 -->
<g id="edge4" class="edge">
<title>n0&#45;&gt;n5</title>
<path fill="none" stroke="#000000" d="M339.3558,-287.8314C339.3558,-280.131 339.3558,-270.9743 339.3558,-262.4166"/>
<polygon fill="#000000" stroke="#000000" points="342.8559,-262.4132 339.3558,-252.4133 335.8559,-262.4133 342.8559,-262.4132"/>
</g>
<!-- n6 -->
<g id="node7" class="node">
<title>n6</title>
<ellipse fill="none" stroke="#000000" cx="513.3558" cy="-90" rx="112.3801" ry="18"/>
<text text-anchor="middle" x="513.3558" y="-86.3" font-family="Times,serif" font-size="14.00" fill="#000000">replicante_data_store</text>
</g>
<!-- n0&#45;&gt;n6 -->
<g id="edge5" class="edge">
<title>n0&#45;&gt;n6</title>
<path fill="none" stroke="#000000" d="M383.8736,-298.1931C412.4498,-290.9282 448.2242,-277.2527 470.3558,-252 487.7787,-232.1202 502.1297,-158.8616 508.9935,-118.0037"/>
<polygon fill="#000000" stroke="#000000" points="512.4487,-118.5615 510.6128,-108.1269 505.5409,-117.4289 512.4487,-118.5615"/>
</g>
<!-- n7 -->
<g id="node8" class="node">
<title>n7</title>
<ellipse fill="none" stroke="#000000" cx="653.3558" cy="-162" rx="135.6761" ry="18"/>
<text text-anchor="middle" x="653.3558" y="-158.3" font-family="Times,serif" font-size="14.00" fill="#000000">replicante_streams_events</text>
</g>
<!-- n0&#45;&gt;n7 -->
<g id="edge6" class="edge">
<title>n0&#45;&gt;n7</title>
<path fill="none" stroke="#000000" d="M383.8737,-294.2524C417.4483,-284.7023 464.2428,-269.9027 503.3558,-252 545.0772,-232.9034 589.7991,-204.9996 619.4479,-185.3358"/>
<polygon fill="#000000" stroke="#000000" points="621.4034,-188.2386 627.7699,-179.7699 617.5119,-182.42 621.4034,-188.2386"/>
</g>
<!-- n8 -->
<g id="node9" class="node">
<title>n8</title>
<ellipse fill="none" stroke="#000000" cx="821.3558" cy="-234" rx="116.9792" ry="18"/>
<text text-anchor="middle" x="821.3558" y="-230.3" font-family="Times,serif" font-size="14.00" fill="#000000">replicante_util_tracing</text>
</g>
<!-- n0&#45;&gt;n8 -->
<g id="edge7" class="edge">
<title>n0&#45;&gt;n8</title>
<path fill="none" stroke="#000000" d="M384.2684,-299.2911C462.0718,-287.669 623.4922,-263.5564 726.8957,-248.1102"/>
<polygon fill="#000000" stroke="#000000" points="727.6543,-251.5358 737.0274,-246.5968 726.62,-244.6127 727.6543,-251.5358"/>
</g>
<!-- n1 -->
<g id="node2" class="node">
<title>n1</title>
<ellipse fill="none" stroke="#000000" cx="908.3558" cy="-162" rx="100.9827" ry="18"/>
<text text-anchor="middle" x="908.3558" y="-158.3" font-family="Times,serif" font-size="14.00" fill="#000000">error&#45;chain v0.12.0</text>
</g>
<!-- n3&#45;&gt;n2 -->
<g id="edge8" class="edge">
<title>n3&#45;&gt;n2</title>
<path fill="none" stroke="#000000" d="M266.0424,-144.9184C283.379,-135.997 302.7086,-123.6426 316.3558,-108 331.9508,-90.1249 341.8479,-64.9176 347.6183,-45.7254"/>
<polygon fill="#000000" stroke="#000000" points="351.0047,-46.6118 350.3387,-36.0379 344.2654,-44.7192 351.0047,-46.6118"/>
</g>
<!-- n4&#45;&gt;n2 -->
<g id="edge9" class="edge">
<title>n4&#45;&gt;n2</title>
<path fill="none" stroke="#000000" d="M212.9075,-72.7542C243.613,-60.8682 284.0944,-45.198 313.8805,-33.6679"/>
<polygon fill="#000000" stroke="#000000" points="315.4801,-36.8018 323.5423,-29.9278 312.9531,-30.2738 315.4801,-36.8018"/>
</g>
<!-- n5&#45;&gt;n2 -->
<g id="edge10" class="edge">
<title>n5&#45;&gt;n2</title>
<path fill="none" stroke="#000000" d="M345.7506,-215.7647C349.0404,-205.4187 352.7,-192.1474 354.3558,-180 360.7036,-133.4311 358.7641,-78.6301 356.6518,-46.1877"/>
<polygon fill="#000000" stroke="#000000" points="360.1344,-45.8163 355.9406,-36.0869 353.1517,-46.3081 360.1344,-45.8163"/>
</g>
<!-- n5&#45;&gt;n3 -->
<g id="edge11" class="edge">
<title>n5&#45;&gt;n3</title>
<path fill="none" stroke="#000000" d="M311.4683,-216.3868C296.5628,-206.9728 278.0267,-195.2658 261.9742,-185.1274"/>
<polygon fill="#000000" stroke="#000000" points="263.6745,-182.0616 253.3506,-179.6809 259.9365,-187.9801 263.6745,-182.0616"/>
</g>
<!-- n5&#45;&gt;n6 -->
<g id="edge12" class="edge">
<title>n5&#45;&gt;n6</title>
<path fill="none" stroke="#000000" d="M361.0412,-216.0535C392.0782,-190.3677 449.2503,-143.0528 484.0346,-114.2659"/>
<polygon fill="#000000" stroke="#000000" points="486.4713,-116.7925 491.9437,-107.7204 482.0083,-111.3997 486.4713,-116.7925"/>
</g>
<!-- n5&#45;&gt;n7 -->
<g id="edge13" class="edge">
<title>n5&#45;&gt;n7</title>
<path fill="none" stroke="#000000" d="M405.5635,-218.8186C455.1754,-207.4426 523.2164,-191.8409 575.4487,-179.8641"/>
<polygon fill="#000000" stroke="#000000" points="576.3767,-183.2422 585.3415,-177.5956 574.8122,-176.4192 576.3767,-183.2422"/>
</g>
<!-- n6&#45;&gt;n2 -->
<g id="edge14" class="edge">
<title>n6&#45;&gt;n2</title>
<path fill="none" stroke="#000000" d="M475.6751,-72.937C450.5132,-61.543 417.5381,-46.6108 392.3182,-35.1905"/>
<polygon fill="#000000" stroke="#000000" points="393.618,-31.937 383.0646,-31.0002 390.7304,-38.3137 393.618,-31.937"/>
</g>
<!-- n7&#45;&gt;n2 -->
<g id="edge15" class="edge">
<title>n7&#45;&gt;n2</title>
<path fill="none" stroke="#000000" d="M654.9607,-143.7075C655.6678,-123.2963 653.3782,-90.6917 634.3558,-72 602.55,-40.7471 476.8619,-26.7394 405.1656,-21.182"/>
<polygon fill="#000000" stroke="#000000" points="405.2298,-17.6772 394.9968,-20.4224 404.7082,-24.6577 405.2298,-17.6772"/>
</g>
<!-- n7&#45;&gt;n6 -->
<g id="edge16" class="edge">
<title>n7&#45;&gt;n6</title>
<path fill="none" stroke="#000000" d="M619.108,-144.3868C600.1541,-134.6391 576.4199,-122.4329 556.2412,-112.0553"/>
<polygon fill="#000000" stroke="#000000" points="557.7437,-108.8924 547.2501,-107.4313 554.5423,-115.1174 557.7437,-108.8924"/>
</g>
<!-- n8&#45;&gt;n1 -->
<g id="edge17" class="edge">
<title>n8&#45;&gt;n1</title>
<path fill="none" stroke="#000000" d="M842.8615,-216.2022C853.7366,-207.2021 867.1006,-196.1423 878.9145,-186.3652"/>
<polygon fill="#000000" stroke="#000000" points="881.3236,-188.9146 886.7961,-179.8425 876.8606,-183.5219 881.3236,-188.9146"/>
</g>
</g>
</svg>
