<?xml version="1.0" encoding="UTF-8" standalone="no"?>
<!DOCTYPE svg PUBLIC "-//W3C//DTD SVG 1.1//EN"
 "http://www.w3.org/Graphics/SVG/1.1/DTD/svg11.dtd">
<!-- Generated by graphviz version 2.40.1 (20161225.0304)
 -->
<!-- Title: dependencies Pages: 1 -->
<svg width="1072pt" height="332pt"
 viewBox="0.00 0.00 1072.46 332.00" xmlns="http://www.w3.org/2000/svg" xmlns:xlink="http://www.w3.org/1999/xlink">
<g id="graph0" class="graph" transform="scale(1 1) rotate(0) translate(4 328)">
<title>dependencies</title>
<polygon fill="#ffffff" stroke="transparent" points="-4,4 -4,-328 1068.4606,-328 1068.4606,4 -4,4"/>
<!-- n0 -->
<g id="node1" class="node">
<title>n0</title>
<polygon fill="none" stroke="#000000" points="522.9709,-324 433.9709,-324 433.9709,-288 522.9709,-288 522.9709,-324"/>
<text text-anchor="middle" x="478.4709" y="-302.3" font-family="Times,serif" font-size="14.00" fill="#000000">replicante</text>
</g>
<!-- n2 -->
<g id="node3" class="node">
<title>n2</title>
<ellipse fill="none" stroke="#000000" cx="214.4709" cy="-90" rx="40.8928" ry="18"/>
<text text-anchor="middle" x="214.4709" y="-86.3" font-family="Times,serif" font-size="14.00" fill="#000000">failure</text>
</g>
<!-- n0&#45;&gt;n2 -->
<g id="edge1" class="edge">
<title>n0&#45;&gt;n2</title>
<path fill="none" stroke="#000000" d="M433.7574,-304.1279C322.6898,-299.0208 41.1724,-283.1046 13.4709,-252 -43.4406,-188.0969 96.3416,-129.4031 171.0808,-103.6934"/>
<polygon fill="#000000" stroke="#000000" points="172.3775,-106.9497 180.7307,-100.4325 170.1365,-100.3182 172.3775,-106.9497"/>
</g>
<!-- n3 -->
<g id="node4" class="node">
<title>n3</title>
<ellipse fill="none" stroke="#000000" cx="288.4709" cy="-162" rx="120.4791" ry="18"/>
<text text-anchor="middle" x="288.4709" y="-158.3" font-family="Times,serif" font-size="14.00" fill="#000000">replicante_agent_client</text>
</g>
<!-- n0&#45;&gt;n3 -->
<g id="edge2" class="edge">
<title>n0&#45;&gt;n3</title>
<path fill="none" stroke="#000000" d="M433.964,-294.9223C406.8035,-286.5024 372.5935,-272.7666 347.4709,-252 326.928,-235.019 310.959,-209.0158 300.8455,-189.3187"/>
<polygon fill="#000000" stroke="#000000" points="303.9208,-187.6414 296.3566,-180.223 297.6436,-190.7394 303.9208,-187.6414"/>
</g>
<!-- n4 -->
<g id="node5" class="node">
<title>n4</title>
<ellipse fill="none" stroke="#000000" cx="161.4709" cy="-234" rx="139.1754" ry="18"/>
<text text-anchor="middle" x="161.4709" y="-230.3" font-family="Times,serif" font-size="14.00" fill="#000000">replicante_agent_discovery</text>
</g>
<!-- n0&#45;&gt;n4 -->
<g id="edge3" class="edge">
<title>n0&#45;&gt;n4</title>
<path fill="none" stroke="#000000" d="M433.7249,-295.8369C383.6083,-284.4539 301.4221,-265.787 240.4384,-251.9358"/>
<polygon fill="#000000" stroke="#000000" points="240.9867,-248.4713 230.4598,-249.6694 239.4362,-255.2974 240.9867,-248.4713"/>
</g>
<!-- n5 -->
<g id="node6" class="node">
<title>n5</title>
<ellipse fill="none" stroke="#000000" cx="478.4709" cy="-234" rx="122.3786" ry="18"/>
<text text-anchor="middle" x="478.4709" y="-230.3" font-family="Times,serif" font-size="14.00" fill="#000000">replicante_data_fetcher</text>
</g>
<!-- n0&#45;&gt;n5 -->
<g id="edge4" class="edge">
<title>n0&#45;&gt;n5</title>
<path fill="none" stroke="#000000" d="M478.4709,-287.8314C478.4709,-280.131 478.4709,-270.9743 478.4709,-262.4166"/>
<polygon fill="#000000" stroke="#000000" points="481.971,-262.4132 478.4709,-252.4133 474.971,-262.4133 481.971,-262.4132"/>
</g>
<!-- n6 -->
<g id="node7" class="node">
<title>n6</title>
<ellipse fill="none" stroke="#000000" cx="638.4709" cy="-90" rx="112.3801" ry="18"/>
<text text-anchor="middle" x="638.4709" y="-86.3" font-family="Times,serif" font-size="14.00" fill="#000000">replicante_data_store</text>
</g>
<!-- n0&#45;&gt;n6 -->
<g id="edge5" class="edge">
<title>n0&#45;&gt;n6</title>
<path fill="none" stroke="#000000" d="M523.0708,-302.9541C593.1774,-295.4507 726.9839,-269.5141 783.4709,-180 792.0096,-166.4689 792.5994,-157.1405 783.4709,-144 774.2,-130.6544 741.3066,-117.8622 709.1892,-108.0811"/>
<polygon fill="#000000" stroke="#000000" points="709.8559,-104.6283 699.2736,-105.1449 707.8683,-111.3403 709.8559,-104.6283"/>
</g>
<!-- n7 -->
<g id="node8" class="node">
<title>n7</title>
<ellipse fill="none" stroke="#000000" cx="638.4709" cy="-162" rx="135.6761" ry="18"/>
<text text-anchor="middle" x="638.4709" y="-158.3" font-family="Times,serif" font-size="14.00" fill="#000000">replicante_streams_events</text>
</g>
<!-- n0&#45;&gt;n7 -->
<g id="edge6" class="edge">
<title>n0&#45;&gt;n7</title>
<path fill="none" stroke="#000000" d="M523.1875,-297.6451C551.4788,-290.1787 586.8539,-276.485 609.4709,-252 625.0723,-235.1101 632.2829,-209.7613 635.6141,-190.2654"/>
<polygon fill="#000000" stroke="#000000" points="639.1128,-190.5281 637.0943,-180.1273 632.1862,-189.5167 639.1128,-190.5281"/>
</g>
<!-- n8 -->
<g id="node9" class="node">
<title>n8</title>
<ellipse fill="none" stroke="#000000" cx="947.4709" cy="-162" rx="116.9792" ry="18"/>
<text text-anchor="middle" x="947.4709" y="-158.3" font-family="Times,serif" font-size="14.00" fill="#000000">replicante_util_tracing</text>
</g>
<!-- n0&#45;&gt;n8 -->
<g id="edge7" class="edge">
<title>n0&#45;&gt;n8</title>
<path fill="none" stroke="#000000" d="M523.2063,-301.329C602.409,-292.6509 763.9107,-273.0051 816.4709,-252 855.776,-236.2922 895.0132,-207.094 920.1512,-186.2126"/>
<polygon fill="#000000" stroke="#000000" points="922.4182,-188.8792 927.7996,-179.7528 917.9015,-183.5314 922.4182,-188.8792"/>
</g>
<!-- n1 -->
<g id="node2" class="node">
<title>n1</title>
<ellipse fill="none" stroke="#000000" cx="778.4709" cy="-18" rx="100.9827" ry="18"/>
<text text-anchor="middle" x="778.4709" y="-14.3" font-family="Times,serif" font-size="14.00" fill="#000000">error&#45;chain v0.12.0</text>
</g>
<!-- n3&#45;&gt;n2 -->
<g id="edge8" class="edge">
<title>n3&#45;&gt;n2</title>
<path fill="none" stroke="#000000" d="M270.1788,-144.2022C260.7655,-135.0434 249.1599,-123.7514 238.9824,-113.849"/>
<polygon fill="#000000" stroke="#000000" points="241.1461,-111.0709 231.538,-106.6058 236.2646,-116.088 241.1461,-111.0709"/>
</g>
<!-- n4&#45;&gt;n2 -->
<g id="edge9" class="edge">
<title>n4&#45;&gt;n2</title>
<path fill="none" stroke="#000000" d="M156.8976,-215.9513C153.0777,-197.1859 149.6747,-167.3468 159.4709,-144 164.7003,-131.5373 174.3644,-120.503 184.1499,-111.71"/>
<polygon fill="#000000" stroke="#000000" points="186.543,-114.2706 191.9414,-105.1542 182.0362,-108.9144 186.543,-114.2706"/>
</g>
<!-- n5&#45;&gt;n2 -->
<g id="edge10" class="edge">
<title>n5&#45;&gt;n2</title>
<path fill="none" stroke="#000000" d="M470.9674,-215.9165C461.516,-195.384 443.3249,-162.3625 417.4709,-144 392.7325,-126.4298 314.3813,-108.885 262.5693,-98.7566"/>
<polygon fill="#000000" stroke="#000000" points="263.0663,-95.288 252.5845,-96.8319 261.7413,-102.1615 263.0663,-95.288"/>
</g>
<!-- n5&#45;&gt;n3 -->
<g id="edge11" class="edge">
<title>n5&#45;&gt;n3</title>
<path fill="none" stroke="#000000" d="M433.9244,-217.1192C406.529,-206.7378 371.2481,-193.3682 342.2944,-182.3963"/>
<polygon fill="#000000" stroke="#000000" points="343.3298,-179.0458 332.7384,-178.775 340.8492,-185.5916 343.3298,-179.0458"/>
</g>
<!-- n5&#45;&gt;n6 -->
<g id="edge12" class="edge">
<title>n5&#45;&gt;n6</title>
<path fill="none" stroke="#000000" d="M476.5251,-215.9717C475.399,-196.1051 476.7387,-164.2848 493.4709,-144 508.1375,-126.2196 529.2614,-114.2918 550.8665,-106.2908"/>
<polygon fill="#000000" stroke="#000000" points="552.1505,-109.5505 560.4702,-102.9905 549.8755,-102.9305 552.1505,-109.5505"/>
</g>
<!-- n5&#45;&gt;n7 -->
<g id="edge13" class="edge">
<title>n5&#45;&gt;n7</title>
<path fill="none" stroke="#000000" d="M516.7949,-216.7542C538.9946,-206.7644 567.1345,-194.1014 590.7599,-183.47"/>
<polygon fill="#000000" stroke="#000000" points="592.2222,-186.65 599.9051,-179.3546 589.3496,-180.2666 592.2222,-186.65"/>
</g>
<!-- n6&#45;&gt;n1 -->
<g id="edge14" class="edge">
<title>n6&#45;&gt;n1</title>
<path fill="none" stroke="#000000" d="M672.0044,-72.7542C691.2256,-62.869 715.5362,-50.3664 736.0728,-39.8048"/>
<polygon fill="#000000" stroke="#000000" points="737.9189,-42.7911 745.2111,-35.1051 734.7175,-36.5661 737.9189,-42.7911"/>
</g>
<!-- n7&#45;&gt;n1 -->
<g id="edge15" class="edge">
<title>n7&#45;&gt;n1</title>
<path fill="none" stroke="#000000" d="M702.7158,-146.093C723.6048,-137.9261 745.0866,-125.8043 759.4709,-108 773.4427,-90.7064 777.8372,-65.6052 778.9391,-46.3027"/>
<polygon fill="#000000" stroke="#000000" points="782.4388,-46.3665 779.2525,-36.2622 775.4422,-46.1481 782.4388,-46.3665"/>
</g>
<!-- n7&#45;&gt;n6 -->
<g id="edge16" class="edge">
<title>n7&#45;&gt;n6</title>
<path fill="none" stroke="#000000" d="M638.4709,-143.8314C638.4709,-136.131 638.4709,-126.9743 638.4709,-118.4166"/>
<polygon fill="#000000" stroke="#000000" points="641.971,-118.4132 638.4709,-108.4133 634.971,-118.4133 641.971,-118.4132"/>
</g>
<!-- n8&#45;&gt;n1 -->
<g id="edge17" class="edge">
<title>n8&#45;&gt;n1</title>
<path fill="none" stroke="#000000" d="M926.4087,-144.0535C896.2635,-118.3677 840.7343,-71.0528 806.9496,-42.2659"/>
<polygon fill="#000000" stroke="#000000" points="809.1494,-39.542 799.2677,-35.7204 804.6094,-44.8701 809.1494,-39.542"/>
</g>
</g>
</svg>
