<?xml version="1.0" encoding="UTF-8" standalone="no"?>
<!DOCTYPE svg PUBLIC "-//W3C//DTD SVG 1.1//EN"
 "http://www.w3.org/Graphics/SVG/1.1/DTD/svg11.dtd">
<!-- Generated by graphviz version 2.40.1 (20161225.0304)
 -->
<!-- Title: dependencies Pages: 1 -->
<svg width="1075pt" height="332pt"
 viewBox="0.00 0.00 1074.70 332.00" xmlns="http://www.w3.org/2000/svg" xmlns:xlink="http://www.w3.org/1999/xlink">
<g id="graph0" class="graph" transform="scale(1 1) rotate(0) translate(4 328)">
<title>dependencies</title>
<polygon fill="#ffffff" stroke="transparent" points="-4,4 -4,-328 1070.7045,-328 1070.7045,4 -4,4"/>
<!-- n0 -->
<g id="node1" class="node">
<title>n0</title>
<polygon fill="none" stroke="#000000" points="525.2149,-324 436.2149,-324 436.2149,-288 525.2149,-288 525.2149,-324"/>
<text text-anchor="middle" x="480.7149" y="-302.3" font-family="Times,serif" font-size="14.00" fill="#000000">replicante</text>
</g>
<!-- n2 -->
<g id="node3" class="node">
<title>n2</title>
<ellipse fill="none" stroke="#000000" cx="290.7149" cy="-90" rx="40.8928" ry="18"/>
<text text-anchor="middle" x="290.7149" y="-86.3" font-family="Times,serif" font-size="14.00" fill="#000000">failure</text>
</g>
<!-- n0&#45;&gt;n2 -->
<g id="edge1" class="edge">
<title>n0&#45;&gt;n2</title>
<path fill="none" stroke="#000000" d="M436.0014,-304.1279C324.9337,-299.0208 43.4164,-283.1046 15.7149,-252 -57.0728,-170.2704 146.1482,-118.2231 242.8099,-98.7064"/>
<polygon fill="#000000" stroke="#000000" points="243.5254,-102.1327 252.6549,-96.7567 242.1655,-95.2661 243.5254,-102.1327"/>
</g>
<!-- n3 -->
<g id="node4" class="node">
<title>n3</title>
<ellipse fill="none" stroke="#000000" cx="290.7149" cy="-162" rx="120.4791" ry="18"/>
<text text-anchor="middle" x="290.7149" y="-158.3" font-family="Times,serif" font-size="14.00" fill="#000000">replicante_agent_client</text>
</g>
<!-- n0&#45;&gt;n3 -->
<g id="edge2" class="edge">
<title>n0&#45;&gt;n3</title>
<path fill="none" stroke="#000000" d="M436.2079,-294.9223C409.0474,-286.5024 374.8374,-272.7666 349.7149,-252 329.172,-235.019 313.203,-209.0158 303.0894,-189.3187"/>
<polygon fill="#000000" stroke="#000000" points="306.1648,-187.6414 298.6006,-180.223 299.8876,-190.7394 306.1648,-187.6414"/>
</g>
<!-- n4 -->
<g id="node5" class="node">
<title>n4</title>
<ellipse fill="none" stroke="#000000" cx="163.7149" cy="-234" rx="139.1754" ry="18"/>
<text text-anchor="middle" x="163.7149" y="-230.3" font-family="Times,serif" font-size="14.00" fill="#000000">replicante_agent_discovery</text>
</g>
<!-- n0&#45;&gt;n4 -->
<g id="edge3" class="edge">
<title>n0&#45;&gt;n4</title>
<path fill="none" stroke="#000000" d="M435.9689,-295.8369C385.8522,-284.4539 303.666,-265.787 242.6823,-251.9358"/>
<polygon fill="#000000" stroke="#000000" points="243.2306,-248.4713 232.7037,-249.6694 241.6801,-255.2974 243.2306,-248.4713"/>
</g>
<!-- n5 -->
<g id="node6" class="node">
<title>n5</title>
<ellipse fill="none" stroke="#000000" cx="480.7149" cy="-234" rx="122.3786" ry="18"/>
<text text-anchor="middle" x="480.7149" y="-230.3" font-family="Times,serif" font-size="14.00" fill="#000000">replicante_data_fetcher</text>
</g>
<!-- n0&#45;&gt;n5 -->
<g id="edge4" class="edge">
<title>n0&#45;&gt;n5</title>
<path fill="none" stroke="#000000" d="M480.7149,-287.8314C480.7149,-280.131 480.7149,-270.9743 480.7149,-262.4166"/>
<polygon fill="#000000" stroke="#000000" points="484.215,-262.4132 480.7149,-252.4133 477.215,-262.4133 484.215,-262.4132"/>
</g>
<!-- n6 -->
<g id="node7" class="node">
<title>n6</title>
<ellipse fill="none" stroke="#000000" cx="682.7149" cy="-90" rx="112.3801" ry="18"/>
<text text-anchor="middle" x="682.7149" y="-86.3" font-family="Times,serif" font-size="14.00" fill="#000000">replicante_data_store</text>
</g>
<!-- n0&#45;&gt;n6 -->
<g id="edge5" class="edge">
<title>n0&#45;&gt;n6</title>
<path fill="none" stroke="#000000" d="M525.3148,-302.9541C595.4213,-295.4507 729.2278,-269.5141 785.7149,-180 794.2536,-166.4689 793.9953,-157.6907 785.7149,-144 776.718,-129.1248 762.1216,-118.1472 746.7101,-110.1281"/>
<polygon fill="#000000" stroke="#000000" points="748.1074,-106.9165 737.5779,-105.7413 745.0763,-113.2262 748.1074,-106.9165"/>
</g>
<!-- n7 -->
<g id="node8" class="node">
<title>n7</title>
<ellipse fill="none" stroke="#000000" cx="640.7149" cy="-162" rx="135.6761" ry="18"/>
<text text-anchor="middle" x="640.7149" y="-158.3" font-family="Times,serif" font-size="14.00" fill="#000000">replicante_streams_events</text>
</g>
<!-- n0&#45;&gt;n7 -->
<g id="edge6" class="edge">
<title>n0&#45;&gt;n7</title>
<path fill="none" stroke="#000000" d="M525.4314,-297.6451C553.7227,-290.1787 589.0978,-276.485 611.7149,-252 627.3162,-235.1101 634.5268,-209.7613 637.8581,-190.2654"/>
<polygon fill="#000000" stroke="#000000" points="641.3567,-190.5281 639.3383,-180.1273 634.4302,-189.5167 641.3567,-190.5281"/>
</g>
<!-- n8 -->
<g id="node9" class="node">
<title>n8</title>
<ellipse fill="none" stroke="#000000" cx="949.7149" cy="-162" rx="116.9792" ry="18"/>
<text text-anchor="middle" x="949.7149" y="-158.3" font-family="Times,serif" font-size="14.00" fill="#000000">replicante_util_tracing</text>
</g>
<!-- n0&#45;&gt;n8 -->
<g id="edge7" class="edge">
<title>n0&#45;&gt;n8</title>
<path fill="none" stroke="#000000" d="M525.4503,-301.329C604.6529,-292.6509 766.1546,-273.0051 818.7149,-252 858.02,-236.2922 897.2572,-207.094 922.3951,-186.2126"/>
<polygon fill="#000000" stroke="#000000" points="924.6621,-188.8792 930.0436,-179.7528 920.1454,-183.5314 924.6621,-188.8792"/>
</g>
<!-- n1 -->
<g id="node2" class="node">
<title>n1</title>
<ellipse fill="none" stroke="#000000" cx="794.7149" cy="-18" rx="100.9827" ry="18"/>
<text text-anchor="middle" x="794.7149" y="-14.3" font-family="Times,serif" font-size="14.00" fill="#000000">error&#45;chain v0.12.0</text>
</g>
<!-- n3&#45;&gt;n2 -->
<g id="edge8" class="edge">
<title>n3&#45;&gt;n2</title>
<path fill="none" stroke="#000000" d="M290.7149,-143.8314C290.7149,-136.131 290.7149,-126.9743 290.7149,-118.4166"/>
<polygon fill="#000000" stroke="#000000" points="294.215,-118.4132 290.7149,-108.4133 287.215,-118.4133 294.215,-118.4132"/>
</g>
<!-- n4&#45;&gt;n2 -->
<g id="edge9" class="edge">
<title>n4&#45;&gt;n2</title>
<path fill="none" stroke="#000000" d="M157.6238,-215.7514C152.3294,-196.2729 147.5148,-165.3383 161.7149,-144 179.4022,-117.4215 212.9549,-103.9 241.4075,-97.0343"/>
<polygon fill="#000000" stroke="#000000" points="242.211,-100.4413 251.2245,-94.8729 240.7058,-93.605 242.211,-100.4413"/>
</g>
<!-- n5&#45;&gt;n2 -->
<g id="edge10" class="edge">
<title>n5&#45;&gt;n2</title>
<path fill="none" stroke="#000000" d="M472.3894,-215.808C462.4142,-195.7947 443.9647,-163.8432 419.7149,-144 395.3893,-124.0948 362.6766,-110.512 336.2806,-101.9477"/>
<polygon fill="#000000" stroke="#000000" points="337.0923,-98.5349 326.504,-98.9083 335.0141,-105.2193 337.0923,-98.5349"/>
</g>
<!-- n5&#45;&gt;n3 -->
<g id="edge11" class="edge">
<title>n5&#45;&gt;n3</title>
<path fill="none" stroke="#000000" d="M436.1683,-217.1192C408.773,-206.7378 373.492,-193.3682 344.5383,-182.3963"/>
<polygon fill="#000000" stroke="#000000" points="345.5737,-179.0458 334.9823,-178.775 343.0932,-185.5916 345.5737,-179.0458"/>
</g>
<!-- n5&#45;&gt;n6 -->
<g id="edge12" class="edge">
<title>n5&#45;&gt;n6</title>
<path fill="none" stroke="#000000" d="M478.49,-215.7326C477.1139,-195.6517 478.2301,-163.6399 495.7149,-144 509.7857,-128.1948 554.8473,-114.9296 597.2082,-105.502"/>
<polygon fill="#000000" stroke="#000000" points="598.0111,-108.9093 607.0422,-103.3694 596.5275,-102.0683 598.0111,-108.9093"/>
</g>
<!-- n5&#45;&gt;n7 -->
<g id="edge13" class="edge">
<title>n5&#45;&gt;n7</title>
<path fill="none" stroke="#000000" d="M519.0389,-216.7542C541.2385,-206.7644 569.3785,-194.1014 593.0038,-183.47"/>
<polygon fill="#000000" stroke="#000000" points="594.4661,-186.65 602.1491,-179.3546 591.5935,-180.2666 594.4661,-186.65"/>
</g>
<!-- n6&#45;&gt;n1 -->
<g id="edge14" class="edge">
<title>n6&#45;&gt;n1</title>
<path fill="none" stroke="#000000" d="M710.1132,-72.3868C724.8664,-62.9026 743.2401,-51.0909 759.0916,-40.9007"/>
<polygon fill="#000000" stroke="#000000" points="761.0803,-43.7831 767.5995,-35.4313 757.295,-37.8948 761.0803,-43.7831"/>
</g>
<!-- n7&#45;&gt;n2 -->
<g id="edge15" class="edge">
<title>n7&#45;&gt;n2</title>
<path fill="none" stroke="#000000" d="M566.9166,-146.8186C497.859,-132.6125 396.7671,-111.8165 337.9607,-99.7191"/>
<polygon fill="#000000" stroke="#000000" points="338.3417,-96.2243 327.8416,-97.6375 336.9312,-103.0807 338.3417,-96.2243"/>
</g>
<!-- n7&#45;&gt;n6 -->
<g id="edge16" class="edge">
<title>n7&#45;&gt;n6</title>
<path fill="none" stroke="#000000" d="M651.3133,-143.8314C656.0026,-135.7925 661.6177,-126.1666 666.7947,-117.2918"/>
<polygon fill="#000000" stroke="#000000" points="669.9583,-118.8146 671.9738,-108.4133 663.9118,-115.2875 669.9583,-118.8146"/>
</g>
<!-- n8&#45;&gt;n1 -->
<g id="edge17" class="edge">
<title>n8&#45;&gt;n1</title>
<path fill="none" stroke="#000000" d="M930.3974,-144.0535C902.8662,-118.476 852.2497,-71.4517 821.2277,-42.6313"/>
<polygon fill="#000000" stroke="#000000" points="823.4974,-39.9625 813.7889,-35.7204 818.7329,-45.0909 823.4974,-39.9625"/>
</g>
</g>
</svg>
